<svg version="1.1" id="Layer_1" xmlns="http://www.w3.org/2000/svg" xmlns:xlink="http://www.w3.org/1999/xlink" x="0px" y="0px"
	 width="100%" viewBox="0 0 1024 1024" enable-background="new 0 0 1024 1024" xml:space="preserve">
<path fill="#000000" opacity="1.000000" stroke="none" 
	d="
M480.260101,469.260071 
	C473.587494,476.049500 466.584259,482.124725 460.889374,489.246185 
	C453.659302,498.287445 444.230255,501.456970 433.425293,503.495148 
	C398.492645,510.084595 363.670959,517.261475 328.801697,524.187866 
	C311.857147,527.553711 294.935883,531.052734 277.941101,534.145264 
	C263.369843,536.796814 253.271057,525.899536 256.403961,511.421234 
	C268.517426,455.440002 280.609863,399.454254 292.664398,343.460327 
	C293.607056,339.081696 295.543884,335.404480 298.720306,332.232635 
	C366.639252,264.410675 434.533112,196.563614 502.427338,128.716919 
	C512.682495,118.468941 522.923584,108.206810 533.156128,97.936340 
	C549.419373,81.612984 572.346497,81.554344 588.760132,97.875366 
	C623.384521,132.304260 657.987549,166.754654 692.583740,201.211853 
	C708.586731,217.150528 709.739990,239.130859 694.316711,255.795090 
	C679.953552,271.313843 664.562256,285.884186 649.553589,300.801666 
	C610.666992,339.451874 571.722839,378.044189 532.840698,416.698853 
	C515.349365,434.087891 497.951111,451.570465 480.260101,469.260071 
M437.182159,327.682159 
	C425.062103,339.823883 412.986023,352.010040 400.788361,364.073273 
	C398.048187,366.783295 397.010193,369.362244 398.189331,373.328888 
	C401.884918,385.760864 405.256531,398.292358 408.547852,410.839264 
	C409.464050,414.331757 411.401001,416.199127 414.764160,417.160767 
	C421.801422,419.173096 428.972504,420.907867 435.734619,423.634583 
	C441.636475,426.014465 445.213135,424.333954 449.476746,420.054138 
	C495.787628,373.567627 542.293701,327.275330 588.824646,281.008636 
	C591.683716,278.165802 591.983704,276.210480 588.982422,273.253815 
	C573.796021,258.293304 558.707581,243.231674 543.736084,228.056244 
	C540.698364,224.977112 538.811584,225.583267 536.033081,228.385086 
	C503.312744,261.380280 470.486969,294.270844 437.182159,327.682159 
M490.342224,179.227493 
	C488.850464,180.553680 487.288483,181.809402 485.877167,183.216324 
	C446.830811,222.140793 407.797119,261.077972 368.767853,300.019562 
	C358.155731,310.607880 347.503418,321.157013 336.989777,331.842438 
	C331.795074,337.122040 333.545013,343.967560 340.602539,345.990173 
	C352.591797,349.426239 364.719147,352.396393 376.639526,356.048492 
	C381.114441,357.419495 383.901886,356.501953 387.112366,353.270874 
	C426.795197,313.333527 466.615936,273.533264 506.389801,233.686340 
	C512.390625,227.674469 518.338684,221.609833 524.300781,215.559433 
	C526.217102,213.614761 527.395691,211.701904 524.879089,209.204086 
	C515.068909,199.467117 505.363708,189.624298 495.545288,179.895706 
	C494.343353,178.704773 492.897614,177.007339 490.342224,179.227493 
M388.067200,484.422791 
	C398.616791,482.179291 409.157654,479.893402 419.720703,477.715240 
	C423.434784,476.949402 425.278809,474.991180 424.732330,471.097839 
	C423.718475,463.874908 422.517639,456.670074 421.799500,449.417633 
	C421.494720,446.339508 420.059296,445.045593 417.395172,444.275269 
	C410.052277,442.152191 402.793915,439.707581 395.388733,437.839752 
	C390.425018,436.587738 387.850464,433.801788 386.551941,428.919556 
	C382.794556,414.792450 378.612030,400.778503 374.846436,386.653473 
	C373.913483,383.153839 372.221924,381.445068 368.698578,380.559052 
	C354.363983,376.954285 340.110962,373.026337 325.806519,369.299469 
	C322.202301,368.360443 318.692261,366.770874 314.839935,366.982849 
	C314.592133,367.718353 314.385376,368.170807 314.287506,368.645660 
	C308.994354,394.325653 303.704498,420.006287 298.432373,445.690582 
	C297.754700,448.991943 298.455292,451.676422 301.111084,454.182892 
	C314.062988,466.406525 326.872009,478.782501 339.649170,491.189453 
	C341.786896,493.265289 343.786652,493.786072 346.784943,493.113831 
	C360.229431,490.099304 373.745483,487.404114 388.067200,484.422791 
M634.082703,278.005157 
	C648.544006,264.936157 661.861206,250.711899 675.484009,236.802139 
	C679.133301,233.076004 678.509827,226.325974 674.460693,222.283356 
	C643.347595,191.220551 612.627441,159.760925 580.776550,129.441162 
	C577.317139,126.148026 573.426514,125.468842 568.518311,126.046608 
	C569.046570,129.751938 569.753357,133.137329 569.951355,136.552216 
	C570.139282,139.793457 568.775940,142.426773 565.432129,143.531265 
	C562.161438,144.611603 560.070312,142.727020 558.124756,140.506943 
	C556.641357,138.814301 556.120300,136.696747 555.454773,134.643463 
	C554.391785,131.364105 553.359985,128.074646 552.340942,124.870773 
	C543.832764,125.888458 543.781250,125.836136 538.467896,131.065826 
	C531.469299,137.954102 524.540466,144.913727 517.622009,151.882721 
	C512.546997,156.994843 512.554749,158.078812 517.410828,163.359863 
	C518.199707,164.217773 519.002319,165.064423 519.826599,165.888260 
	C554.221008,200.264648 588.591980,234.664566 623.059021,268.967987 
	C626.323853,272.217285 629.225159,275.968262 634.082703,278.005157 
M605.474731,293.108154 
	C603.287292,289.115509 599.985229,286.088562 596.774109,282.967926 
	C594.201660,280.468018 591.914856,280.705597 589.506531,283.231201 
	C584.915955,288.045502 580.756775,293.218597 576.945923,298.644348 
	C573.933594,302.933014 575.372681,313.677490 579.134888,317.284180 
	C581.423584,319.478394 583.876892,319.964600 586.824280,318.408630 
	C594.180298,314.525360 600.113159,309.092682 604.695740,302.210815 
	C606.387695,299.669861 607.384216,296.831665 605.474731,293.108154 
z"/>
<path fill="#000000" opacity="1.000000" stroke="none" 
	d="
M516.628662,610.643372 
	C538.131897,586.846619 564.738403,573.789856 596.129395,570.587036 
	C640.593811,566.050293 679.654175,577.422668 710.513428,611.144775 
	C727.527222,629.737000 737.188782,651.952576 740.343689,676.911194 
	C744.666870,711.112122 737.931091,742.771729 717.921143,771.204956 
	C716.229919,773.608032 716.429504,775.205383 718.497925,777.196228 
	C724.139099,782.625916 729.664307,788.178528 735.149536,793.766846 
	C739.719971,798.423218 739.762268,802.589722 735.231628,807.251526 
	C728.032410,814.659180 720.763062,821.999756 713.454529,829.299683 
	C709.001160,833.747864 705.548462,833.823547 700.944946,829.378235 
	C694.353699,823.013245 687.855469,816.546387 681.487244,809.959045 
	C679.261597,807.656738 677.387390,807.383911 674.545227,808.902527 
	C655.837158,818.897583 635.678833,823.560303 614.611206,824.017334 
	C551.401611,825.388611 501.048889,786.656738 488.702087,724.503845 
	C480.873260,685.094055 487.746094,648.483643 512.220276,615.884277 
	C513.517883,614.155884 514.997864,612.564575 516.628662,610.643372 
M556.757019,746.740479 
	C580.652649,779.230591 621.716675,780.705505 638.732056,769.145386 
	C638.196167,766.901672 636.450989,765.521606 634.934875,764.013489 
	C630.328369,759.431213 625.543823,755.021423 621.063782,750.320374 
	C616.593323,745.629211 616.780029,741.883545 621.319519,737.332214 
	C628.966309,729.665527 636.613708,721.999084 644.308228,714.380432 
	C648.320862,710.407288 650.927002,710.409180 654.912537,714.364868 
	C660.588318,719.998108 666.149048,725.747681 671.853943,731.350891 
	C675.303284,734.738708 676.951355,734.518188 678.767639,730.058960 
	C690.355225,701.610657 689.502014,673.865173 671.457092,648.409668 
	C644.000488,609.677307 589.817322,607.842468 559.550720,644.174072 
	C549.278198,656.505005 543.985535,670.989075 542.121399,686.994446 
	C539.607788,708.575806 543.932434,728.278748 556.757019,746.740479 
z"/>
<path fill="#000000" opacity="1.000000" stroke="none" 
	d="
M394.348816,720.000122 
	C394.347595,750.162415 394.350922,779.824768 394.340973,809.487061 
	C394.338440,816.985413 393.031311,818.329895 385.724030,818.345215 
	C373.059265,818.371765 360.394348,818.405640 347.729706,818.366516 
	C340.411072,818.343933 338.680359,816.552917 338.678772,809.134155 
	C338.666260,751.142639 338.672577,693.151123 338.662994,635.159607 
	C338.661713,627.319458 338.635773,627.322815 330.920441,627.325378 
	C311.256683,627.332092 291.592926,627.343445 271.929169,627.335632 
	C265.138855,627.332947 263.639587,625.862976 263.629822,619.214783 
	C263.613159,607.883118 263.623108,596.551453 263.626556,585.219788 
	C263.628998,577.199585 265.064026,575.783936 273.325592,575.777466 
	C296.155548,575.759644 318.985535,575.754517 341.815491,575.757019 
	C380.309845,575.761169 418.804169,575.761292 457.298523,575.794739 
	C466.735657,575.802979 468.290222,577.416443 468.298401,586.852783 
	C468.307983,597.851196 468.343445,608.849731 468.290375,619.847900 
	C468.262421,625.641846 466.604523,627.300903 460.845520,627.312683 
	C441.015167,627.353088 421.184692,627.320740 401.354340,627.355103 
	C394.712708,627.366638 394.348907,627.772217 394.347382,634.512695 
	C394.340881,662.841797 394.347015,691.170959 394.348816,720.000122 
z"/>
<path fill="#000000" opacity="1.000000" stroke="none" 
	d="
M654.206055,210.844177 
	C662.353271,220.647903 661.953796,235.848923 653.642578,244.882233 
	C650.967346,247.789871 647.909119,249.150177 643.868530,248.482880 
	C637.638062,247.453949 631.268555,248.388351 625.003052,247.112610 
	C620.321655,246.159393 617.033508,244.265747 615.920227,239.273758 
	C613.047668,226.393524 608.443298,214.180069 601.489990,202.902435 
	C600.330933,201.022583 599.978821,198.883209 599.962646,196.677017 
	C599.915527,190.222321 602.956787,188.220947 608.738586,190.888504 
	C611.629822,192.222443 614.191345,193.709320 615.982849,196.651413 
	C618.446716,200.697632 622.890381,201.103958 627.069458,200.896713 
	C637.440308,200.382416 646.339539,203.606705 654.206055,210.844177 
z"/>
</svg>